<svg width="55" height="48" viewBox="0 0 55 48" fill="none" xmlns="http://www.w3.org/2000/svg">
<path d="M54.9731 11.1039C54.7266 16.5053 50.9877 23.9012 43.7567 33.2914C36.279 43.0971 29.9517 48 24.7749 48C21.5701 48 18.8586 45.0084 16.6398 39.0253L12.2026 22.5716C10.5591 16.5885 8.7924 13.5969 6.90246 13.5969C6.49161 13.5969 5.05358 14.4694 2.58838 16.2145L0 12.849C2.68874 10.4598 5.35941 8.04982 8.01175 5.61935C11.6273 2.46157 14.339 0.79961 16.1468 0.633385C20.4197 0.217896 23.0492 3.16794 24.0353 9.48346C25.1035 16.2976 25.843 20.5357 26.2538 22.1977C27.4864 27.8484 28.8423 30.6738 30.3213 30.6738C31.4717 30.6738 33.1974 28.8456 35.4982 25.1893C37.799 21.5329 39.0316 18.7491 39.1959 16.8378C39.5246 13.68 38.292 12.1011 35.4982 12.1011C34.1834 12.1011 32.8276 12.392 31.4307 12.9737C34.1424 4.08205 39.3192 -0.239113 46.9612 0.0101997C52.6311 0.176424 55.3017 3.87435 54.973 11.104L54.9731 11.1039Z" fill="#002E5D"/>
</svg>
